name GIL02_static.mot
datacolumns 141
datarows 4
range 0.00833333 0.03333334
endheader

                time	           pelvis_tx	           pelvis_ty	           pelvis_tz	         pelvis_tilt	         pelvis_list	     pelvis_rotation	       hip_flexion_r	     hip_adduction_r	      hip_rotation_r	        knee_angle_r	       ankle_angle_r	    subtalar_angle_r	         mtp_angle_r	       hip_flexion_l	     hip_adduction_l	      hip_rotation_l	        knee_angle_l	       ankle_angle_l	    subtalar_angle_l	         mtp_angle_l	    lumbar_extension	      lumbar_bending	     lumbar_rotation	    ground_marker_px	    ground_marker_py	    ground_marker_pz	    ground_marker_px	    ground_marker_py	    ground_marker_pz	    ground_marker_px	    ground_marker_py	    ground_marker_pz	    ground_marker_px	    ground_marker_py	    ground_marker_pz	    ground_marker_px	    ground_marker_py	    ground_marker_pz	    ground_marker_px	    ground_marker_py	    ground_marker_pz	    ground_marker_px	    ground_marker_py	    ground_marker_pz	    ground_marker_px	    ground_marker_py	    ground_marker_pz	    ground_marker_px	    ground_marker_py	    ground_marker_pz	    ground_marker_px	    ground_marker_py	    ground_marker_pz	    ground_marker_px	    ground_marker_py	    ground_marker_pz	    ground_marker_px	    ground_marker_py	    ground_marker_pz	    ground_marker_px	    ground_marker_py	    ground_marker_pz	    ground_marker_px	    ground_marker_py	    ground_marker_pz	    ground_marker_px	    ground_marker_py	    ground_marker_pz	    ground_marker_px	    ground_marker_py	    ground_marker_pz	    ground_marker_px	    ground_marker_py	    ground_marker_pz	    ground_marker_px	    ground_marker_py	    ground_marker_pz	    ground_marker_px	    ground_marker_py	    ground_marker_pz	    ground_marker_px	    ground_marker_py	    ground_marker_pz	    ground_marker_px	    ground_marker_py	    ground_marker_pz	    ground_marker_px	    ground_marker_py	    ground_marker_pz	    ground_marker_px	    ground_marker_py	    ground_marker_pz	    ground_marker_px	    ground_marker_py	    ground_marker_pz	    ground_marker_px	    ground_marker_py	    ground_marker_pz	    ground_marker_px	    ground_marker_py	    ground_marker_pz	    ground_marker_px	    ground_marker_py	    ground_marker_pz	    ground_marker_px	    ground_marker_py	    ground_marker_pz	    ground_marker_px	    ground_marker_py	    ground_marker_pz	    ground_marker_px	    ground_marker_py	    ground_marker_pz	    ground_marker_px	    ground_marker_py	    ground_marker_pz	    ground_marker_px	    ground_marker_py	    ground_marker_pz	    ground_marker_px	    ground_marker_py	    ground_marker_pz	    ground_marker_px	    ground_marker_py	    ground_marker_pz	    ground_marker_px	    ground_marker_py	    ground_marker_pz	    ground_marker_px	    ground_marker_py	    ground_marker_pz	    ground_marker_px	    ground_marker_py	    ground_marker_pz	    ground_marker_px	    ground_marker_py	    ground_marker_pz	    ground_marker_px	    ground_marker_py	    ground_marker_pz	
          0.00833333	          1.56625855	          0.95970428	         -0.24571046	         -5.57854843	          2.06392694	         -1.75179589	          2.41348648	         -7.48963022	         10.97713947	         -0.83188903	          3.90906048	          0.00000000	          0.00000000	         -0.09099579	         -1.82486212	          5.49255228	         -1.11601686	          5.98548841	          0.00000000	          0.00000000	         -3.04216003	          2.36383343	         -4.84454441	          1.48055363	          0.90610611	         -0.24955107	          1.46688199	          0.87984484	         -0.17639813	          1.47290123	          0.88361830	         -0.32665965	          1.44212520	          0.46991673	         -0.13380671	          1.43145859	          0.46109661	         -0.35248992	          1.40617502	          0.06991298	         -0.13068846	          1.38366687	          0.07108745	         -0.36313599	          1.56625855	          0.95970428	         -0.24571046	          1.56148267	          0.95671034	         -0.12648879	          1.57103443	          0.96269816	         -0.36493212	          1.38233495	          1.01831377	         -0.21983872	          1.38838077	          1.01697803	         -0.30496800	          1.45168984	          0.47551861	         -0.07433076	          1.43974531	          0.46391261	         -0.41184816	          1.42680943	          0.47617924	         -0.18238737	          1.42640948	          0.46568528	         -0.30199143	          1.39095569	          0.07158570	         -0.09157868	          1.36502743	          0.07436433	         -0.39950681	          1.41550255	          0.08324695	         -0.15791844	          1.39059043	          0.08331426	         -0.33821717	          1.34280026	          0.04260754	         -0.14405300	          1.31763732	          0.04291388	         -0.35209417	          1.48857379	          1.37017787	         -0.23410676	          1.56956112	          1.20601904	         -0.24424452	          1.37663233	          1.43750489	         -0.23812887	          1.49882627	          1.35926461	         -0.18184637	          1.51275587	          1.36503041	         -0.28858224	          1.52565575	          0.03927941	         -0.09988879	          1.50054181	          0.04135658	         -0.40192077	          1.50635970	          0.59082395	         -0.00928350	          1.59598160	          0.55281061	         -0.34094664	          1.52208924	          0.65080172	         -0.08204841	          1.53489363	          0.61839747	         -0.38097903	          1.51345396	          0.56360364	         -0.09682321	          1.50830293	          0.53541732	         -0.38516387	          1.41769242	          0.20478985	         -0.00545507	          1.40581095	          0.21208653	         -0.47935024	          1.40609956	          0.17220902	         -0.07812069	          1.38482904	          0.17404915	         -0.41029841	
          0.01666667	          1.56622064	          0.95970237	         -0.24569178	         -5.57329941	          2.06282830	         -1.73924100	          2.41136074	         -7.48760462	         10.95658493	         -0.83979738	          3.91861868	          0.00000000	          0.00000000	         -0.08102036	         -1.83276308	          5.48565197	         -1.13835204	          5.99849796	          0.00000000	          0.00000000	         -3.00667500	          2.38038778	         -4.78065491	          1.48054671	          0.90605617	         -0.24974936	          1.46686685	          0.87982976	         -0.17636195	          1.47285354	          0.88361096	         -0.32662454	          1.44214702	          0.46992257	         -0.13380262	          1.43152356	          0.46108213	         -0.35252196	          1.40618360	          0.06992762	         -0.13070236	          1.38367689	          0.07109520	         -0.36313987	          1.56622064	          0.95970237	         -0.24569178	          1.56146908	          0.95670128	         -0.12643097	          1.57097220	          0.96270341	         -0.36495256	          1.38236904	          1.01827157	         -0.21990842	          1.38835227	          1.01696157	         -0.30507848	          1.45170248	          0.47552165	         -0.07432497	          1.43979061	          0.46391174	         -0.41188225	          1.42680180	          0.47618893	         -0.18240586	          1.42655933	          0.46570709	         -0.30183011	          1.39095843	          0.07159963	         -0.09159487	          1.36502469	          0.07437366	         -0.39950398	          1.41547561	          0.08329822	         -0.15788837	          1.39051509	          0.08330362	         -0.33817926	          1.34278715	          0.04259655	         -0.14403115	          1.31762564	          0.04291769	         -0.35208255	          1.48858786	          1.37019038	         -0.23406015	          1.56969523	          1.20610189	         -0.24437636	          1.37661815	          1.43745959	         -0.23828749	          1.49891150	          1.35925961	         -0.18178990	          1.51270926	          1.36508930	         -0.28859630	          1.52564430	          0.03928738	         -0.09997600	          1.50054097	          0.04137313	         -0.40194249	          1.50635886	          0.59081876	         -0.00927807	          1.59603131	          0.55279285	         -0.34093374	          1.52210724	          0.65078193	         -0.08204169	          1.53487790	          0.61836910	         -0.38101891	          1.51345551	          0.56358862	         -0.09682469	          1.50838375	          0.53546995	         -0.38510305	          1.41771245	          0.20478892	         -0.00546070	          1.40584373	          0.21209356	         -0.47932747	          1.40634847	          0.17220570	         -0.07803851	          1.38480043	          0.17404637	         -0.41024831	
          0.02500000	          1.56618023	          0.95968890	         -0.24567986	         -5.57072830	          2.06890607	         -1.73186636	          2.41581821	         -7.49380636	         10.94027710	         -0.85082608	          3.92854333	          0.00000000	          0.00000000	         -0.06942081	         -1.83215058	          5.47838402	         -1.15925300	          6.00848389	          0.00000000	          0.00000000	         -2.98160172	          2.39874339	         -4.72660828	          1.48054469	          0.90601563	         -0.24992266	          1.46683669	          0.87980163	         -0.17635220	          1.47280955	          0.88360417	         -0.32661480	          1.44217312	          0.46992040	         -0.13380551	          1.43158352	          0.46106860	         -0.35255983	          1.40619397	          0.06993462	         -0.13071293	          1.38368368	          0.07110452	         -0.36314052	          1.56618023	          0.95968890	         -0.24567986	          1.56143832	          0.95667005	         -0.12638608	          1.57092214	          0.96270770	         -0.36497363	          1.38239050	          1.01822805	         -0.21997692	          1.38832879	          1.01694620	         -0.30517614	          1.45171666	          0.47552025	         -0.07432600	          1.43983734	          0.46390828	         -0.41192153	          1.42679775	          0.47623014	         -0.18245323	          1.42658412	          0.46586129	         -0.30168709	          1.39096069	          0.07160722	         -0.09160855	          1.36502254	          0.07438321	         -0.39950004	          1.41544676	          0.08330314	         -0.15786026	          1.39066672	          0.08336152	         -0.33815774	          1.34277225	          0.04258357	         -0.14400397	          1.31760716	          0.04291959	         -0.35206878	          1.48858714	          1.37022984	         -0.23402354	          1.56977737	          1.20619333	         -0.24451183	          1.37672257	          1.43738592	         -0.23835950	          1.49896681	          1.35927486	         -0.18176484	          1.51265931	          1.36517394	         -0.28859055	          1.52564299	          0.03929528	         -0.10002022	          1.50053716	          0.04137758	         -0.40195829	          1.50636256	          0.59081972	         -0.00927549	          1.59609675	          0.55279249	         -0.34095830	          1.52211022	          0.65075797	         -0.08203608	          1.53489280	          0.61839187	         -0.38116366	          1.51345909	          0.56362367	         -0.09683882	          1.50838375	          0.53546995	         -0.38510305	          1.41772640	          0.20479068	         -0.00546330	          1.40586948	          0.21209358	         -0.47930467	          1.40644002	          0.17225792	         -0.07801250	          1.38473737	          0.17402862	         -0.41022348	
          0.03333334	          1.56613755	          0.95966434	         -0.24568251	         -5.57142258	          2.08222485	         -1.73053551	          2.42797375	         -7.50863886	         10.92832947	         -0.86579496	          3.93706059	          0.00000000	          0.00000000	         -0.05784130	         -1.82086778	          5.47515011	         -1.17485774	          6.01137543	          0.00000000	          0.00000000	         -2.98423529	          2.41122031	         -4.75869513	          1.48044586	          0.90590698	         -0.25006706	          1.46678984	          0.87976241	         -0.17637791	          1.47276986	          0.88359916	         -0.32663938	          1.44220459	          0.46990848	         -0.13381973	          1.43162215	          0.46105623	         -0.35259628	          1.40620446	          0.06993338	         -0.13072011	          1.38368332	          0.07111301	         -0.36313856	          1.56613755	          0.95966434	         -0.24568251	          1.56138921	          0.95661777	         -0.12637044	          1.57088602	          0.96271086	         -0.36499459	          1.38239229	          1.01818788	         -0.22004090	          1.38830507	          1.01693559	         -0.30525389	          1.45173228	          0.47551337	         -0.07433816	          1.43987417	          0.46389925	         -0.41195807	          1.42664945	          0.47641706	         -0.18245025	          1.42660248	          0.46606296	         -0.30153364	          1.39096069	          0.07160843	         -0.09161998	          1.36502063	          0.07439035	         -0.39949730	          1.41543686	          0.08320615	         -0.15781279	          1.39088416	          0.08344137	         -0.33813441	          1.34275758	          0.04257210	         -0.14397459	          1.31758618	          0.04292208	         -0.35205722	          1.48857784	          1.37026858	         -0.23406558	          1.56975973	          1.20622849	         -0.24456294	          1.37669408	          1.43744898	         -0.23842099	          1.49892104	          1.35929239	         -0.18178518	          1.51268637	          1.36523151	         -0.28863841	          1.52565289	          0.03930112	         -0.09999594	          1.50053227	          0.04136613	         -0.40196604	          1.50637090	          0.59083027	         -0.00927592	          1.59617221	          0.55280614	         -0.34101698	          1.52221370	          0.65077925	         -0.08195931	          1.53496373	          0.61844081	         -0.38129935	          1.51343012	          0.56363773	         -0.09679691	          1.50838375	          0.53546995	         -0.38510305	          1.41773486	          0.20479451	         -0.00546340	          1.40588832	          0.21208428	         -0.47928745	          1.40627873	          0.17219263	         -0.07810881	          1.38483512	          0.17409304	         -0.41022277	
